<svg width="1280" height="720" xmlns="http://www.w3.org/2000/svg" xmlns:xlink="http://www.w3.org/1999/xlink" overflow="hidden"><defs><clipPath id="clip0"><rect x="0" y="0" width="1280" height="720"/></clipPath><clipPath id="clip1"><rect x="292" y="12" width="696" height="696"/></clipPath><clipPath id="clip2"><rect x="292" y="12" width="696" height="696"/></clipPath><clipPath id="clip3"><rect x="292" y="12" width="696" height="696"/></clipPath></defs><g clip-path="url(#clip0)"><rect x="0" y="0" width="1280" height="720" fill="#FFFFFF"/><g clip-path="url(#clip1)"><g clip-path="url(#clip2)"><g clip-path="url(#clip3)"><path d="M639.848 84.5C487.773 84.496 364.49 207.773 364.486 359.848 364.482 511.922 487.759 635.206 639.833 635.21 791.908 635.214 915.192 511.937 915.195 359.862 915.195 359.853 915.195 359.843 915.195 359.833 915.256 207.831 792.082 84.5602 640.08 84.5 640.002 84.4999 639.925 84.4999 639.848 84.5ZM668.34 508.451C665.273 515.621 659.561 521.334 652.39 524.401 648.702 525.97 644.733 526.77 640.725 526.75 632.723 526.765 625.043 523.602 619.374 517.956 616.639 515.216 614.452 511.981 612.928 508.422 611.352 504.731 610.55 500.756 610.572 496.742 610.553 488.736 613.719 481.052 619.374 475.384 631.097 463.63 650.129 463.605 661.883 475.328 661.901 475.347 661.92 475.365 661.938 475.384L661.938 475.384C664.688 478.144 666.877 481.411 668.384 485.004 669.954 488.718 670.756 492.711 670.74 496.742 670.749 500.764 669.932 504.744 668.34 508.436ZM693.94 381.141C674.136 393.083 661.905 414.408 661.598 437.531L618.098 437.531C618.357 399.441 638.279 364.189 670.776 344.318 698.019 327.241 706.259 291.313 689.182 264.07 672.104 236.828 636.176 228.587 608.934 245.665 591.942 256.316 581.628 274.963 581.638 295.018L538.138 295.018C538.116 238.841 583.639 193.283 639.817 193.262 695.993 193.241 741.552 238.764 741.573 294.941 741.586 329.953 723.592 362.51 693.94 381.127Z" fill="#70AD47"/></g></g></g></g></svg>