<svg xmlns="http://www.w3.org/2000/svg" viewBox="0 0 48 48" width="28" height="28" fill="currentColor"><path d="M26.475 34.96l-6.376 6.376a4.982 4.982 0 01-7.047 0l-6.388-6.388a4.983 4.983 0 010-7.047l11.338-11.337a4.982 4.982 0 017.047 0l4.96 4.96a1.001 1.001 0 010 1.416l-2.12 2.12-5.669-5.668a.983.983 0 00-1.39 0L9.492 30.73a.983.983 0 000 1.39l6.388 6.388a.983.983 0 001.39 0l4.942-4.943a4.977 4.977 0 004.263 1.395zm14.861-21.908l-6.388-6.388a4.982 4.982 0 00-7.047 0l-6.376 6.376a4.977 4.977 0 014.262 1.395l4.943-4.943a.983.983 0 011.39 0l6.388 6.388a.983.983 0 010 1.39L27.17 28.608a.983.983 0 01-1.39 0l-5.67-5.668-2.12 2.12a1.001 1.001 0 000 1.416l4.962 4.96a4.982 4.982 0 007.047 0L41.336 20.1a4.983 4.983 0 000-7.047z" fill="#367abb"></path></svg>