<?xml version="1.0" encoding="UTF-8"?><svg id="Layer_1" xmlns="http://www.w3.org/2000/svg" viewBox="0 0 262.09 208.41"><defs><style>.cls-1{fill:#d40511;}</style></defs><g><path class="cls-1" d="M240.86,61.47c1.63,2.34,2.45,6.09,2.45,11.26v3.88c-.06,5.17-.91,8.92-2.54,11.26-1.63,2.34-4.2,3.51-7.71,3.51h-5.35V57.96h5.35c3.57,0,6.17,1.17,7.8,3.51m-7.43,43.65c8.24,0,14.63-2.37,19.15-7.11,4.52-4.74,6.81-11.69,6.88-20.86v-4.98c0-9.17-2.28-16.12-6.83-20.85-4.55-4.74-10.95-7.11-19.19-7.11h-21.78v60.9h21.78Zm-66.44,0v-39.22h1.66l13.01,39.22h20.39V44.21h-14.77v39.22h-1.66l-13.01-39.22h-20.39v60.9h14.76Zm-22.7,0v-13.75h-23.72v-10.43h20.21v-13.2h-20.21v-9.78h22.7v-13.75h-38.76v60.9h39.77ZM78.69,58.38c1.48,1.02,2.21,2.88,2.21,5.58v1.38c0,2.71-.74,4.58-2.21,5.63-1.48,1.05-3.51,1.57-6.09,1.57h-5.35v-15.69h5.35c2.58,0,4.61,.51,6.09,1.52m-11.44,46.74v-19.93h5.07l8.86,19.93h18.36l-11.72-22.88c3.01-1.48,5.31-3.58,6.88-6.32,1.57-2.74,2.35-6.23,2.35-10.47v-1.85c0-6.89-2.18-11.84-6.55-14.86-4.37-3.01-10.46-4.52-18.27-4.52h-20.95v60.9h15.97Zm-36.08,0V57.96h15.04v-13.75H-.03v13.75H15.01v47.15H31.16Z"/><path class="cls-1" d="M241.16,125.57c1.47,1.01,2.21,2.86,2.21,5.56v1.38c0,2.7-.74,4.57-2.21,5.61-1.47,1.04-3.49,1.56-6.07,1.56h-5.33v-15.62h5.33c2.57,0,4.6,.51,6.07,1.52m-11.4,46.55v-19.85h5.05l8.82,19.85h18.29l-11.67-22.79c3-1.47,5.29-3.57,6.85-6.29,1.56-2.73,2.34-6.2,2.34-10.43v-1.84c0-6.86-2.18-11.79-6.53-14.8-4.35-3-10.42-4.5-18.2-4.5h-20.86v60.66h15.9Zm-46.78-46.14l4.41,21.41h-11.03l4.5-21.41h2.11Zm-11.76,46.14l2.48-11.86h16.36l2.48,11.86h16.91l-15.16-60.66h-23.71l-15.16,60.66h15.81Zm-35.8-43.47c1.62,2.33,2.44,6.07,2.44,11.21v3.86c-.06,5.15-.9,8.89-2.53,11.21-1.62,2.33-4.18,3.49-7.67,3.49h-5.33v-33.27h5.33c3.55,0,6.14,1.17,7.77,3.49m-7.4,43.47c8.21,0,14.57-2.36,19.07-7.08,4.5-4.72,6.78-11.64,6.85-20.77v-4.96c0-9.13-2.27-16.05-6.8-20.77-4.53-4.72-10.91-7.08-19.12-7.08h-21.69v60.66h21.69Zm-52.57-46.14l4.41,21.41h-11.03l4.5-21.41h2.11Zm-11.76,46.14l2.48-11.86h16.36l2.48,11.86h16.91l-15.16-60.66h-23.71l-15.16,60.66h15.81ZM27.3,125.57c1.47,1.01,2.21,2.86,2.21,5.56v1.38c0,2.7-.74,4.57-2.21,5.61-1.47,1.04-3.49,1.56-6.07,1.56h-5.33v-15.62h5.33c2.57,0,4.59,.51,6.07,1.52m-11.4,46.55v-19.85h5.05l8.82,19.85h18.29l-11.67-22.79c3-1.47,5.28-3.57,6.85-6.29,1.56-2.73,2.34-6.2,2.34-10.43v-1.84c0-6.86-2.18-11.79-6.53-14.8-4.35-3-10.42-4.5-18.2-4.5H0v60.66H15.9Z"/><path class="cls-1" d="M255.11,35.63c2.57-2.12,3.85-5.07,3.85-8.85,0-5.43-3.09-9.14-9.27-11.13l-4.27-1.35c-.98-.3-1.7-.68-2.16-1.15-.47-.47-.7-1.08-.7-1.83,0-.86,.36-1.55,1.07-2.05,.71-.51,1.74-.76,3.09-.76,1.24,0,2.56,.21,3.96,.62,1.4,.41,2.61,1.05,3.62,1.91l4.33-7.03c-1.65-1.27-3.52-2.26-5.62-2.95-2.1-.69-4.25-1.04-6.46-1.04-4.38,0-7.8,1.03-10.26,3.09-2.46,2.06-3.68,4.97-3.68,8.71,0,2.73,.74,5,2.22,6.8,1.48,1.8,3.81,3.2,7,4.22l4.22,1.35c1.05,.34,1.81,.74,2.28,1.21s.7,1.12,.7,1.94c0,1.99-1.52,2.98-4.55,2.98-3.45,0-6.41-1.03-8.88-3.09l-4.5,6.8c3.41,3.18,7.83,4.78,13.26,4.78,4.61,0,8.2-1.06,10.76-3.18m-30.24,1.94c1.97-.82,3.72-2.14,5.26-3.93l-5.62-6.3c-1.01,1.05-1.97,1.79-2.87,2.22-.9,.43-1.95,.65-3.15,.65-2.17,0-3.79-.77-4.86-2.3-1.07-1.54-1.6-3.95-1.6-7.25v-2.47c0-3.3,.53-5.71,1.6-7.25,1.07-1.54,2.69-2.3,4.86-2.3,1.01,0,1.99,.23,2.95,.67,.96,.45,1.96,1.2,3.01,2.25l5.73-6.35C227.26,1.74,223.21,.02,218.04,.02c-3.22,0-6.01,.68-8.37,2.05-2.36,1.37-4.2,3.38-5.51,6.04-1.31,2.66-1.97,5.88-1.97,9.67v3.15c0,3.82,.66,7.06,1.97,9.72,1.31,2.66,3.15,4.68,5.51,6.07,2.36,1.39,5.15,2.08,8.37,2.08,2.59,0,4.86-.41,6.83-1.24M197.58,.86h-9.78V37.96h9.78V.86Zm-22.03,37.09V9.24h9.16V.86h-28.16V9.24h9.16v28.72h9.84Zm-23.75-2.33c2.57-2.12,3.85-5.07,3.85-8.85,0-5.43-3.09-9.14-9.27-11.13l-4.27-1.35c-.98-.3-1.7-.68-2.16-1.15-.47-.47-.7-1.08-.7-1.83,0-.86,.36-1.55,1.07-2.05,.71-.51,1.74-.76,3.09-.76,1.24,0,2.56,.21,3.96,.62,1.41,.41,2.61,1.05,3.63,1.91l4.33-7.03c-1.65-1.27-3.52-2.26-5.62-2.95-2.1-.69-4.25-1.04-6.46-1.04-4.38,0-7.8,1.03-10.26,3.09-2.46,2.06-3.68,4.97-3.68,8.71,0,2.73,.74,5,2.22,6.8,1.48,1.8,3.81,3.2,7,4.22l4.21,1.35c1.05,.34,1.81,.74,2.28,1.21,.47,.47,.7,1.12,.7,1.94,0,1.99-1.52,2.98-4.55,2.98-3.45,0-6.41-1.03-8.88-3.09l-4.5,6.8c3.41,3.18,7.83,4.78,13.26,4.78,4.61,0,8.2-1.06,10.76-3.18M124.4,.86h-9.78V37.96h9.78V.86Zm-18.21,33.7c2.62-2.83,3.93-6.79,3.93-11.89v-6.69h-15.34v7.92h5.79c-.11,1.91-.59,3.46-1.43,4.64-.84,1.18-2.13,1.77-3.85,1.77-1.87,0-3.24-.79-4.1-2.36-.86-1.57-1.29-4.01-1.29-7.31v-2.47c0-3.3,.49-5.73,1.46-7.31,.97-1.57,2.51-2.36,4.61-2.36,1.27,0,2.43,.22,3.46,.67,1.03,.45,1.98,1.2,2.84,2.25l5.68-6.24C105.13,1.74,101.08,.02,95.8,.02c-3.15,0-5.9,.68-8.26,2.05-2.36,1.37-4.2,3.38-5.51,6.04-1.31,2.66-1.97,5.88-1.97,9.67v3.15c0,5.73,1.32,10.15,3.96,13.24,2.64,3.09,6.4,4.64,11.27,4.64s8.28-1.41,10.9-4.24m-49.88-6.63c-.92-1.59-1.38-4.02-1.38-7.28v-2.47c0-3.26,.46-5.69,1.38-7.28,.92-1.59,2.44-2.39,4.58-2.39s3.66,.8,4.58,2.39c.92,1.59,1.38,4.02,1.38,7.28v2.47c0,3.26-.46,5.69-1.38,7.28-.92,1.59-2.45,2.39-4.58,2.39s-3.66-.8-4.58-2.39m16.3,6.24c2.72-3.09,4.08-7.48,4.08-13.18v-3.15c0-5.7-1.36-10.09-4.08-13.18C69.9,1.57,65.99,.02,60.89,.02s-9,1.55-11.72,4.64c-2.72,3.09-4.08,7.48-4.08,13.18v3.15c0,5.7,1.36,10.09,4.08,13.18,2.72,3.09,6.62,4.64,11.72,4.64s9-1.55,11.72-4.64m-29.76,3.79v-8.66h-12.93V.86h-9.78V37.96h22.71Z"/></g><path class="cls-1" d="M15.03,.84h-3.4V6.71h-2.58V1.71h-3.27V6.71H3.36V1.09H-.04V10.68H15.03V.84Zm0,20.26h-5.92v-4.07h5.92v-3.97H-.04v3.97H5.71v4.07H-.04v3.97H15.03v-3.97Zm0,8.95H3.36v-3.72H-.04v11.44H3.36v-3.72H15.03v-4Z"/><g><path d="M82.09,193.46v-7.59h2.81c1.13,0,2,.3,2.61,.9,.61,.6,.91,1.46,.91,2.58v.62c0,1.12-.3,1.98-.91,2.58-.61,.6-1.48,.9-2.61,.9h-2.81Zm2.81-6.11h-1.07v4.62h1.07c1.19,0,1.78-.69,1.78-2.07v-.48c0-1.38-.59-2.07-1.78-2.07Z"/><path d="M92.34,193.59c-.88,0-1.58-.25-2.11-.75-.52-.5-.79-1.2-.79-2.09v-.46c0-.88,.24-1.58,.73-2.08,.49-.51,1.14-.76,1.95-.76s1.45,.25,1.9,.76c.45,.51,.67,1.21,.67,2.1v.71h-3.6c.09,.82,.55,1.23,1.37,1.23,.27,0,.52-.04,.74-.12,.23-.08,.45-.19,.67-.33l.68,1.05c-.29,.22-.62,.4-.99,.53-.37,.13-.78,.2-1.23,.2Zm-.25-4.81c-.33,0-.58,.11-.74,.32-.16,.21-.25,.51-.28,.89h2.02c-.02-.38-.12-.68-.28-.89s-.41-.32-.74-.32Z"/><path d="M97.62,193.57c-.69,0-1.16-.16-1.41-.47-.25-.31-.37-.76-.37-1.35v-6.35h1.67v6.27c0,.2,.04,.34,.13,.42,.09,.08,.22,.12,.38,.12,.07,0,.14,0,.22-.02v1.35c-.18,.02-.39,.03-.62,.03Z"/><path d="M100.13,186.97c-.28,0-.51-.08-.7-.24-.19-.16-.29-.38-.29-.66s.1-.49,.29-.66c.19-.16,.42-.24,.7-.24s.51,.08,.7,.24,.29,.38,.29,.66-.1,.49-.29,.66-.43,.24-.7,.24Zm-.84,6.49v-5.87h1.67v5.87h-1.67Z"/><path d="M103.54,193.46l-1.75-5.87h1.82l1.07,4.45h.18l1.07-4.45h1.76l-1.75,5.87h-2.4Z"/><path d="M111.04,193.59c-.88,0-1.58-.25-2.11-.75-.52-.5-.79-1.2-.79-2.09v-.46c0-.88,.24-1.58,.73-2.08,.49-.51,1.14-.76,1.95-.76s1.45,.25,1.9,.76c.45,.51,.67,1.21,.67,2.1v.71h-3.6c.09,.82,.55,1.23,1.37,1.23,.27,0,.52-.04,.74-.12,.23-.08,.45-.19,.67-.33l.68,1.05c-.29,.22-.62,.4-.99,.53-.37,.13-.78,.2-1.23,.2Zm-.25-4.81c-.33,0-.58,.11-.74,.32-.16,.21-.25,.51-.28,.89h2.02c-.02-.38-.12-.68-.28-.89s-.41-.32-.74-.32Z"/><path d="M114.57,193.46v-5.87h1.58v1.46c.08-.26,.2-.51,.34-.74,.14-.23,.33-.42,.55-.57,.23-.15,.51-.22,.85-.22,.07,0,.13,0,.19,0s.13,.01,.21,.03v1.54c-.06,0-.13-.01-.2-.02-.07,0-.14,0-.21,0-.42,0-.77,.08-1.04,.24s-.47,.33-.6,.52v3.63h-1.67Z"/><path d="M120,186.97c-.28,0-.51-.08-.7-.24-.19-.16-.29-.38-.29-.66s.1-.49,.29-.66c.19-.16,.42-.24,.7-.24s.51,.08,.7,.24,.29,.38,.29,.66-.1,.49-.29,.66-.43,.24-.7,.24Zm-.84,6.49v-5.87h1.67v5.87h-1.67Z"/><path d="M122.34,193.46v-5.87h1.58v1.02c.18-.34,.41-.61,.7-.82s.65-.32,1.08-.32c.58,0,1.04,.2,1.36,.59,.33,.4,.49,.95,.49,1.65v3.74h-1.67v-3.54c0-.31-.07-.57-.21-.75-.14-.19-.36-.28-.66-.28-.23,0-.43,.05-.59,.16s-.3,.24-.41,.4v4.01h-1.67Z"/><path d="M130.83,193.46c-.66,0-1.18-.25-1.56-.74-.38-.49-.57-1.16-.57-2.01v-.48c0-.85,.19-1.52,.57-2.01,.38-.49,.9-.74,1.56-.74,.38,0,.72,.09,1.02,.27,.3,.18,.53,.43,.69,.75v-.91h1.58v5.36c0,1.89-1.03,2.83-3.08,2.83-.83,0-1.54-.21-2.1-.63l.69-1.18c.44,.28,.91,.41,1.43,.41,.97,0,1.45-.47,1.45-1.4v-.47c-.17,.3-.4,.53-.69,.7-.29,.17-.62,.25-.98,.25Zm-.46-2.79c0,.94,.36,1.4,1.09,1.4,.42,0,.75-.16,1-.47v-2.25c-.25-.31-.59-.47-1-.47-.36,0-.63,.12-.82,.36-.18,.24-.28,.59-.28,1.04v.39Z"/><path d="M138.81,186.97c-.28,0-.51-.08-.7-.24-.19-.16-.29-.38-.29-.66s.1-.49,.29-.66c.19-.16,.42-.24,.7-.24s.51,.08,.7,.24,.29,.38,.29,.66-.1,.49-.29,.66-.43,.24-.7,.24Zm-.84,6.49v-5.87h1.67v5.87h-1.67Z"/><path d="M141.16,193.46v-5.87h1.58v1.02c.18-.34,.41-.61,.7-.82s.65-.32,1.08-.32c.58,0,1.04,.2,1.36,.59,.33,.4,.49,.95,.49,1.65v3.74h-1.67v-3.54c0-.31-.07-.57-.21-.75-.14-.19-.36-.28-.66-.28-.23,0-.43,.05-.59,.16s-.3,.24-.41,.4v4.01h-1.67Z"/><path d="M149.6,193.59c-.48,0-.9-.06-1.26-.18-.37-.12-.71-.32-1.04-.59l.67-1.07c.49,.37,1.03,.55,1.61,.55s.91-.18,.91-.54c0-.25-.21-.43-.63-.52l-.63-.14c-.53-.12-.93-.33-1.21-.64-.28-.31-.42-.7-.42-1.17,0-.58,.21-1.04,.63-1.36,.42-.33,1-.49,1.73-.49,.87,0,1.61,.23,2.24,.68l-.63,1.07c-.42-.31-.9-.46-1.44-.46s-.83,.17-.83,.51c0,.28,.21,.46,.63,.55l.64,.14c1.09,.24,1.63,.82,1.63,1.75,0,.61-.23,1.08-.68,1.41-.46,.33-1.09,.5-1.92,.5Z"/><path d="M154.23,186.97c-.28,0-.51-.08-.7-.24-.19-.16-.29-.38-.29-.66s.1-.49,.29-.66c.19-.16,.42-.24,.7-.24s.51,.08,.7,.24,.29,.38,.29,.66-.1,.49-.29,.66-.43,.24-.7,.24Zm-.84,6.49v-5.87h1.67v5.87h-1.67Z"/><path d="M158.42,193.46c-.66,0-1.18-.25-1.56-.74-.38-.49-.57-1.16-.57-2.01v-.48c0-.85,.19-1.52,.57-2.01,.38-.49,.9-.74,1.56-.74,.38,0,.72,.09,1.02,.27,.3,.18,.53,.43,.69,.75v-.91h1.58v5.36c0,1.89-1.03,2.83-3.08,2.83-.83,0-1.54-.21-2.1-.63l.69-1.18c.44,.28,.91,.41,1.43,.41,.97,0,1.45-.47,1.45-1.4v-.47c-.17,.3-.4,.53-.69,.7-.29,.17-.62,.25-.98,.25Zm-.46-2.79c0,.94,.36,1.4,1.09,1.4,.42,0,.75-.16,1-.47v-2.25c-.25-.31-.59-.47-1-.47-.36,0-.63,.12-.82,.36-.18,.24-.28,.59-.28,1.04v.39Z"/><path d="M163.22,193.46v-8.05h1.67v3.12c.18-.32,.42-.58,.7-.76,.28-.19,.62-.28,1.02-.28,.58,0,1.03,.2,1.34,.6s.47,.98,.47,1.73v3.65h-1.67v-3.54c0-.31-.07-.57-.21-.75-.14-.19-.36-.28-.66-.28-.23,0-.43,.05-.59,.16s-.3,.24-.41,.4v4.01h-1.67Z"/><path d="M172.15,193.57c-.78,0-1.34-.18-1.66-.53-.33-.35-.49-.92-.49-1.71v-2.15h-.85v-1.36h.87v-1.3l1.62-.37v1.67h1.25v1.36h-1.23v2.08c0,.38,.07,.63,.21,.75,.14,.13,.35,.19,.63,.19,.06,0,.13,0,.2,0s.13,0,.2-.02v1.35c-.1,.02-.21,.03-.34,.03-.13,0-.26,.01-.41,.01Z"/><path d="M178.69,193.57c-.78,0-1.34-.18-1.66-.53-.33-.35-.49-.92-.49-1.71v-2.15h-.85v-1.36h.87v-1.3l1.62-.37v1.67h1.25v1.36h-1.23v2.08c0,.38,.07,.63,.21,.75,.14,.13,.35,.19,.63,.19,.06,0,.13,0,.2,0s.13,0,.2-.02v1.35c-.1,.02-.21,.03-.34,.03-.13,0-.26,.01-.41,.01Z"/><path d="M183.17,193.59c-.87,0-1.56-.25-2.06-.76s-.75-1.2-.75-2.08v-.46c0-.88,.25-1.58,.75-2.08,.5-.51,1.19-.76,2.06-.76s1.56,.25,2.06,.76c.5,.51,.75,1.2,.75,2.08v.46c0,.88-.25,1.58-.75,2.08-.5,.51-1.19,.76-2.06,.76Zm0-1.39c.36,0,.64-.12,.84-.37s.31-.62,.31-1.12v-.39c0-.5-.1-.87-.31-1.12s-.48-.37-.84-.37-.64,.12-.85,.37-.3,.62-.3,1.12v.39c0,.5,.1,.87,.3,1.12s.49,.37,.85,.37Z"/><path d="M189.06,193.57c-.65,0-1.17-.25-1.54-.75s-.56-1.19-.56-2.06v-.46c0-.87,.19-1.56,.56-2.06s.89-.75,1.54-.75c.76,0,1.31,.35,1.64,1.06v-3.13h1.67v8.05h-1.58v-1.01c-.16,.35-.39,.63-.7,.83s-.65,.3-1.04,.3Zm-.44-2.85c0,.47,.09,.83,.28,1.08,.18,.25,.45,.37,.79,.37,.42,0,.76-.18,1.01-.54v-2.22c-.25-.35-.59-.53-1.01-.53-.34,0-.61,.12-.79,.37-.18,.25-.28,.61-.28,1.08v.39Z"/><path d="M195.11,193.57c-.51,0-.93-.16-1.25-.48-.32-.32-.48-.73-.48-1.25,0-.58,.22-1.03,.66-1.37,.44-.34,1.03-.51,1.77-.51h.92v-.08c0-.74-.36-1.1-1.07-1.1-.46,0-.88,.16-1.27,.47l-.77-1.04c.57-.51,1.3-.77,2.19-.77,1.66,0,2.5,.81,2.5,2.43v1.83c0,.34,.14,.51,.43,.51h.06s.07,0,.13-.01v1.32c-.11,.02-.21,.03-.32,.03s-.21,.01-.32,.01c-.42,0-.75-.08-.97-.24-.23-.16-.37-.4-.44-.74-.42,.65-1.01,.98-1.76,.98Zm.67-1.23c.38,0,.69-.17,.96-.49v-.84h-.69c-.67,0-1,.23-1,.7,0,.2,.06,.36,.2,.47,.13,.11,.31,.17,.54,.17Z"/><path d="M200.74,195.64l.7-2.19h-.58l-1.77-5.87h1.82l1.07,4.45h.2l1.15-4.45h1.76l-2.61,8.05h-1.74Z"/><path d="M205.82,195.24l-.66-.75c.41-.34,.7-.65,.87-.93-.22-.05-.4-.16-.54-.33s-.21-.36-.21-.59c0-.28,.1-.52,.3-.7,.2-.18,.46-.27,.77-.27s.58,.1,.78,.29c.2,.19,.29,.45,.29,.77,0,.41-.14,.83-.42,1.27-.28,.44-.68,.85-1.18,1.24Z"/></g><g><path d="M84.47,205.09c-.57,0-1.06-.12-1.48-.35-.42-.23-.74-.56-.97-.99-.23-.43-.34-.93-.34-1.5v-.46c0-.57,.11-1.06,.34-1.49,.23-.43,.55-.76,.96-1,.41-.24,.9-.36,1.45-.36,.4,0,.78,.07,1.13,.21s.66,.33,.91,.59l-.83,1.06c-.31-.29-.65-.44-1.02-.44s-.7,.13-.92,.39c-.22,.26-.33,.62-.33,1.07v.39c0,.45,.12,.81,.34,1.07,.23,.26,.54,.39,.94,.39,.38,0,.73-.15,1.07-.44l.82,1.06c-.55,.53-1.25,.79-2.08,.79Z"/><path d="M87.45,204.96v-5.87h1.58v1.46c.08-.26,.2-.51,.34-.74,.14-.23,.33-.42,.55-.57,.23-.15,.51-.22,.85-.22,.07,0,.13,0,.19,0s.13,.01,.21,.03v1.54c-.06,0-.13-.01-.2-.02-.07,0-.14,0-.21,0-.42,0-.77,.08-1.04,.24s-.47,.33-.6,.52v3.63h-1.67Z"/><path d="M94.65,205.09c-.88,0-1.58-.25-2.11-.75-.52-.5-.79-1.2-.79-2.09v-.46c0-.88,.24-1.58,.73-2.08,.49-.51,1.14-.76,1.95-.76s1.45,.25,1.9,.76c.45,.51,.67,1.21,.67,2.1v.71h-3.6c.09,.82,.55,1.23,1.37,1.23,.27,0,.52-.04,.74-.12,.23-.08,.45-.19,.67-.33l.68,1.05c-.29,.22-.62,.4-.99,.53-.37,.13-.78,.2-1.23,.2Zm-.25-4.81c-.33,0-.58,.11-.74,.32-.16,.21-.25,.51-.28,.89h2.02c-.02-.38-.12-.68-.28-.89s-.41-.32-.74-.32Z"/><path d="M99.4,205.07c-.51,0-.93-.16-1.25-.48-.32-.32-.48-.73-.48-1.25,0-.58,.22-1.03,.66-1.37,.44-.34,1.03-.51,1.77-.51h.92v-.08c0-.74-.36-1.1-1.07-1.1-.46,0-.88,.16-1.27,.47l-.77-1.04c.57-.51,1.3-.77,2.19-.77,1.66,0,2.5,.81,2.5,2.43v1.83c0,.34,.14,.51,.43,.51h.06s.07,0,.13-.01v1.32c-.11,.02-.21,.03-.32,.03s-.21,.01-.32,.01c-.42,0-.75-.08-.97-.24-.23-.16-.37-.4-.44-.74-.42,.65-1.01,.98-1.76,.98Zm.67-1.23c.38,0,.69-.17,.96-.49v-.84h-.69c-.67,0-1,.23-1,.7,0,.2,.06,.36,.2,.47,.13,.11,.31,.17,.54,.17Z"/><path d="M106.54,205.07c-.78,0-1.34-.18-1.66-.53-.33-.35-.49-.92-.49-1.71v-2.15h-.85v-1.36h.87v-1.3l1.62-.37v1.67h1.25v1.36h-1.23v2.08c0,.38,.07,.63,.21,.75,.14,.13,.35,.19,.63,.19,.06,0,.13,0,.2,0s.13,0,.2-.02v1.35c-.1,.02-.21,.03-.34,.03-.13,0-.26,.01-.41,.01Z"/><path d="M109.21,198.47c-.28,0-.51-.08-.7-.24-.19-.16-.29-.38-.29-.66s.1-.49,.29-.66c.19-.16,.42-.24,.7-.24s.51,.08,.7,.24,.29,.38,.29,.66-.1,.49-.29,.66-.43,.24-.7,.24Zm-.84,6.49v-5.87h1.67v5.87h-1.67Z"/><path d="M111.56,204.96v-5.87h1.58v1.02c.18-.34,.41-.61,.7-.82s.65-.32,1.08-.32c.58,0,1.04,.2,1.36,.59,.33,.4,.49,.95,.49,1.65v3.74h-1.67v-3.54c0-.31-.07-.57-.21-.75-.14-.19-.36-.28-.66-.28-.23,0-.43,.05-.59,.16s-.3,.24-.41,.4v4.01h-1.67Z"/><path d="M120.04,204.96c-.66,0-1.18-.25-1.56-.74-.38-.49-.57-1.16-.57-2.01v-.48c0-.85,.19-1.52,.57-2.01,.38-.49,.9-.74,1.56-.74,.38,0,.72,.09,1.02,.27,.3,.18,.53,.43,.69,.75v-.91h1.58v5.36c0,1.89-1.03,2.83-3.08,2.83-.83,0-1.54-.21-2.1-.63l.69-1.18c.44,.28,.91,.41,1.43,.41,.97,0,1.45-.47,1.45-1.4v-.47c-.17,.3-.4,.53-.69,.7-.29,.17-.62,.25-.98,.25Zm-.46-2.79c0,.94,.36,1.4,1.09,1.4,.42,0,.75-.16,1-.47v-2.25c-.25-.31-.59-.47-1-.47-.36,0-.63,.12-.82,.36-.18,.24-.28,.59-.28,1.04v.39Z"/><path d="M128.25,204.96l-1.75-5.87h1.82l1.07,4.45h.18l1.07-4.45h1.76l-1.75,5.87h-2.4Z"/><path d="M134.46,205.07c-.51,0-.93-.16-1.25-.48-.32-.32-.48-.73-.48-1.25,0-.58,.22-1.03,.66-1.37,.44-.34,1.03-.51,1.77-.51h.92v-.08c0-.74-.36-1.1-1.07-1.1-.46,0-.88,.16-1.27,.47l-.77-1.04c.57-.51,1.3-.77,2.19-.77,1.66,0,2.5,.81,2.5,2.43v1.83c0,.34,.14,.51,.43,.51h.06s.07,0,.13-.01v1.32c-.11,.02-.21,.03-.32,.03s-.21,.01-.32,.01c-.42,0-.75-.08-.97-.24-.23-.16-.37-.4-.44-.74-.42,.65-1.01,.98-1.76,.98Zm.67-1.23c.38,0,.69-.17,.96-.49v-.84h-.69c-.67,0-1,.23-1,.7,0,.2,.06,.36,.2,.47,.13,.11,.31,.17,.54,.17Z"/><path d="M140.97,205.07c-.69,0-1.16-.16-1.41-.47-.25-.31-.37-.76-.37-1.35v-6.35h1.67v6.27c0,.2,.04,.34,.13,.42,.09,.08,.22,.12,.38,.12,.07,0,.14,0,.22-.02v1.35c-.18,.02-.39,.03-.62,.03Z"/><path d="M144.35,205.07c-.58,0-1.02-.2-1.32-.61s-.46-.98-.46-1.73v-3.65h1.67v3.54c0,.31,.07,.56,.2,.75s.35,.28,.64,.28c.21,0,.4-.05,.56-.16s.29-.24,.39-.4v-4.01h1.67v5.87h-1.58v-1.02c-.18,.34-.41,.61-.71,.82s-.65,.32-1.06,.32Z"/><path d="M151.83,205.09c-.88,0-1.58-.25-2.11-.75-.52-.5-.79-1.2-.79-2.09v-.46c0-.88,.24-1.58,.73-2.08,.49-.51,1.14-.76,1.95-.76s1.45,.25,1.9,.76c.45,.51,.67,1.21,.67,2.1v.71h-3.6c.09,.82,.55,1.23,1.37,1.23,.27,0,.52-.04,.74-.12,.23-.08,.45-.19,.67-.33l.68,1.05c-.29,.22-.62,.4-.99,.53-.37,.13-.78,.2-1.23,.2Zm-.25-4.81c-.33,0-.58,.11-.74,.32-.16,.21-.25,.51-.28,.89h2.02c-.02-.38-.12-.68-.28-.89s-.41-.32-.74-.32Z"/><path d="M160.07,205.07c-.78,0-1.34-.18-1.66-.53-.33-.35-.49-.92-.49-1.71v-2.15h-.85v-1.36h.87v-1.3l1.62-.37v1.67h1.25v1.36h-1.23v2.08c0,.38,.07,.63,.21,.75,.14,.13,.35,.19,.63,.19,.06,0,.13,0,.2,0s.13,0,.2-.02v1.35c-.1,.02-.21,.03-.34,.03-.13,0-.26,.01-.41,.01Z"/><path d="M164.55,205.09c-.87,0-1.56-.25-2.06-.76s-.75-1.2-.75-2.08v-.46c0-.88,.25-1.58,.75-2.08,.5-.51,1.19-.76,2.06-.76s1.56,.25,2.06,.76c.5,.51,.75,1.2,.75,2.08v.46c0,.88-.25,1.58-.75,2.08-.5,.51-1.19,.76-2.06,.76Zm0-1.39c.36,0,.64-.12,.84-.37s.31-.62,.31-1.12v-.39c0-.5-.1-.87-.31-1.12s-.48-.37-.84-.37-.64,.12-.85,.37-.3,.62-.3,1.12v.39c0,.5,.1,.87,.3,1.12s.49,.37,.85,.37Z"/><path d="M168.59,204.96v-5.87h1.58v1.02c.18-.34,.41-.61,.71-.82,.29-.21,.66-.32,1.09-.32,.8,0,1.34,.39,1.6,1.16,.19-.34,.44-.62,.75-.83,.31-.22,.68-.33,1.13-.33,.57,0,1,.2,1.31,.61s.46,.98,.46,1.72v3.65h-1.67v-3.54c0-.31-.07-.57-.2-.75-.13-.19-.34-.28-.63-.28-.22,0-.42,.06-.58,.17s-.3,.25-.4,.41v4h-1.67v-3.54c0-.31-.07-.57-.21-.75-.14-.19-.35-.28-.63-.28-.21,0-.4,.05-.57,.16s-.3,.24-.4,.39v4.02h-1.67Z"/><path d="M181.19,205.09c-.87,0-1.56-.25-2.06-.76s-.75-1.2-.75-2.08v-.46c0-.88,.25-1.58,.75-2.08,.5-.51,1.19-.76,2.06-.76s1.56,.25,2.06,.76c.5,.51,.75,1.2,.75,2.08v.46c0,.88-.25,1.58-.75,2.08-.5,.51-1.19,.76-2.06,.76Zm0-1.39c.36,0,.64-.12,.84-.37s.31-.62,.31-1.12v-.39c0-.5-.1-.87-.31-1.12s-.48-.37-.84-.37-.64,.12-.85,.37-.3,.62-.3,1.12v.39c0,.5,.1,.87,.3,1.12s.49,.37,.85,.37Z"/><path d="M185.24,204.96v-5.87h1.58v1.46c.08-.26,.2-.51,.34-.74,.14-.23,.33-.42,.55-.57,.23-.15,.51-.22,.85-.22,.07,0,.13,0,.19,0s.13,.01,.21,.03v1.54c-.06,0-.13-.01-.2-.02-.07,0-.14,0-.21,0-.42,0-.77,.08-1.04,.24s-.47,.33-.6,.52v3.63h-1.67Z"/><path d="M189.82,204.96v-5.87h1.58v1.46c.08-.26,.2-.51,.34-.74,.14-.23,.33-.42,.55-.57,.23-.15,.51-.22,.85-.22,.07,0,.13,0,.19,0s.13,.01,.21,.03v1.54c-.06,0-.13-.01-.2-.02-.07,0-.14,0-.21,0-.42,0-.77,.08-1.04,.24s-.47,.33-.6,.52v3.63h-1.67Z"/><path d="M196.94,205.09c-.87,0-1.56-.25-2.06-.76s-.75-1.2-.75-2.08v-.46c0-.88,.25-1.58,.75-2.08,.5-.51,1.19-.76,2.06-.76s1.56,.25,2.06,.76c.5,.51,.75,1.2,.75,2.08v.46c0,.88-.25,1.58-.75,2.08-.5,.51-1.19,.76-2.06,.76Zm0-1.39c.36,0,.64-.12,.84-.37s.31-.62,.31-1.12v-.39c0-.5-.1-.87-.31-1.12s-.48-.37-.84-.37-.64,.12-.85,.37-.3,.62-.3,1.12v.39c0,.5,.1,.87,.3,1.12s.49,.37,.85,.37Z"/><path d="M201.65,204.96l-1.38-5.87h1.79l.75,4.43h.18l.75-4.31h2.05l.75,4.31h.18l.75-4.43h1.74l-1.38,5.87h-2.27l-.75-4.14h-.18l-.75,4.14h-2.23Z"/><path d="M210.65,205.13c-.3,0-.55-.09-.76-.26-.21-.18-.31-.41-.31-.71s.1-.54,.31-.71,.46-.26,.76-.26,.55,.09,.76,.26,.31,.41,.31,.71-.1,.54-.31,.71c-.21,.18-.46,.26-.76,.26Z"/></g><g><path class="cls-1" d="M228.1,204.71c-1.59,0-2.98-.36-4.16-1.08-1.18-.72-2.09-1.73-2.73-3.02-.64-1.29-.96-2.79-.96-4.48,0-1.05,.14-2.14,.42-3.27,.28-1.13,.76-2.38,1.42-3.75,.67-1.37,1.58-2.93,2.73-4.68l3.81-5.7h2.5l-4.47,6.66c-1.46,2.18-2.5,4-3.12,5.47,.67-.85,1.46-1.5,2.37-1.96s1.92-.69,3.02-.69c1.33,0,2.55,.33,3.64,1,1.09,.67,1.96,1.6,2.6,2.81,.64,1.21,.96,2.64,.96,4.31s-.33,3.14-1,4.41c-.67,1.27-1.61,2.25-2.83,2.95-1.22,.69-2.62,1.04-4.21,1.04Zm-5.62-8.58c0,1.28,.24,2.42,.73,3.41,.49,.99,1.16,1.77,2.02,2.35,.86,.58,1.85,.87,2.98,.87,1.72,0,3.1-.6,4.14-1.81,1.04-1.21,1.56-2.75,1.56-4.62s-.49-3.3-1.48-4.45c-.99-1.14-2.39-1.71-4.22-1.71-.95,0-1.9,.22-2.85,.65-.95,.44-1.81,1.21-2.58,2.31-.1,.49-.18,.98-.23,1.48-.05,.5-.08,1.01-.08,1.52Z"/><path class="cls-1" d="M240.96,204.52c-.51,0-.93-.17-1.25-.52s-.48-.76-.48-1.25,.16-.91,.48-1.25,.74-.52,1.25-.52,.93,.17,1.25,.52c.32,.35,.48,.76,.48,1.25s-.16,.9-.48,1.25c-.32,.35-.74,.52-1.25,.52Z"/><path class="cls-1" d="M253.66,204.71c-5.65,0-8.47-4-8.47-12.01v-2.54c0-8.01,2.82-12.01,8.47-12.01s8.43,3.99,8.43,11.97v2.62c0,4.03-.72,7.03-2.16,9.01-1.44,1.98-3.53,2.96-6.28,2.96Zm0-2.04c2.05,0,3.59-.81,4.62-2.43s1.54-4.18,1.54-7.7v-2.23c0-3.52-.51-6.08-1.54-7.7s-2.57-2.43-4.62-2.43-3.63,.81-4.66,2.43c-1.03,1.62-1.54,4.18-1.54,7.7v2.23c0,3.52,.51,6.08,1.54,7.7,1.03,1.62,2.58,2.43,4.66,2.43Z"/></g></svg>